<svg width="20" height="32" viewBox="0 0 20 32" fill="none" xmlns="http://www.w3.org/2000/svg">
<path d="M4.19549 5.63947C4.19549 2.19991 7.0319 1.68402e-05 9.97997 0L10.0549 0.000513275C13.2199 0.0443019 15.5054 2.85854 15.5054 5.63947H12.052C12.052 4.59668 11.1227 3.53759 10.032 3.50476L9.97997 3.50396C8.60489 3.50397 7.64891 4.45767 7.64891 5.63947C7.64892 7.16399 8.80083 8.32584 9.97997 8.32584H14.1486L4.04339 18.5789L5.14889 23.6265H14.4332L15.8761 18.5021L14.3812 16.9081L10.4278 20.9195L7.98582 18.4418L14.4425 11.8906L19.7392 17.5381L17.0381 27.1304H2.37868L0.260986 17.4613L6.81332 10.8131C5.18521 9.64971 4.1955 7.64531 4.19549 5.63947Z" fill="#0D1010"/>
<path d="M2.79588 28.5217H17.2045L18.348 32H1.65234L2.79588 28.5217Z" fill="#0D1010"/>
</svg>
