<svg width="1408" height="144" viewBox="0 0 1408 144" fill="none" xmlns="http://www.w3.org/2000/svg">
<path d="M99.2048 87.3412H38.0833V141.741H0V2.44706H110.724V30.6823H38.0833V59.8588H99.2048V87.3412Z" fill="#0D1010"/>
<path d="M158.453 2.44706V141.741H120.369V2.44706H158.453Z" fill="#0D1010"/>
<path d="M209.091 141.741H169.362L231.424 2.44706H268.567L330.394 141.741H289.959L277.735 112.376H221.55L209.091 141.741ZM245.059 57.0353L232.599 86.7765H266.921L254.462 57.0353C252.581 52.3294 250.466 46.8706 249.76 43.4823C249.055 46.6824 247.174 51.9529 245.059 57.0353Z" fill="#0D1010"/>
<path d="M378.85 141.741H341.237V2.44706H378.85L452.196 91.1059V2.44706H489.809V141.741H452.196L378.85 53.2706V141.741Z" fill="#0D1010"/>
<path d="M584.813 144C532.625 144 499.949 116.329 499.949 72.2823C499.949 28.8 534.506 0.188233 586.459 0.188233C629.949 0.188233 661.215 20.1412 666.622 51.3882H626.423C621.251 37.4588 606.441 29.5529 585.518 29.5529C557.309 29.5529 540.148 45.5529 540.148 72.0941C540.148 98.2588 557.544 114.635 585.518 114.635C606.911 114.635 622.661 106.165 627.363 92.4235H666.857C660.745 123.482 628.303 144 584.813 144Z" fill="#0D1010"/>
<path d="M716.305 141.741H678.222V2.44706H716.305V57.4118H783.539V2.44706H821.622V141.741H783.539V85.6471H716.305V141.741Z" fill="#0D1010"/>
<path d="M944.728 141.741H834.239V2.44706H944.728V30.6823H872.323V57.9765H936.5V84.7059H872.323V113.506H944.728V141.741Z" fill="#0D1010"/>
<path d="M955.433 30.6823V2.44706H1092.25V30.6823H1042.88V141.741H1004.8V30.6823H955.433Z" fill="#0D1010"/>
<path d="M1101.74 30.6823V2.44706H1238.55V30.6823H1189.19V141.741H1151.1V30.6823H1101.74Z" fill="#0D1010"/>
<path d="M1408 71.9059C1408 114.447 1372.97 144 1322.43 144C1272.12 144 1237.57 114.635 1237.57 72.0941C1237.57 29.5529 1272.36 0 1322.67 0C1373.21 0 1408 29.3647 1408 71.9059ZM1367.8 71.9059C1367.8 45.3647 1350.88 29.3647 1322.9 29.3647C1294.69 29.3647 1277.76 45.3647 1277.76 71.9059C1277.76 98.6353 1294.69 114.635 1322.9 114.635C1350.88 114.635 1367.8 98.2588 1367.8 71.9059Z" fill="#0D1010"/>
</svg>
